<?xml version="1.0" encoding="utf-8" standalone="no"?>
<!DOCTYPE svg PUBLIC "-//W3C//DTD SVG 1.1//EN"
  "http://www.w3.org/Graphics/SVG/1.1/DTD/svg11.dtd">
<svg xmlns:xlink="http://www.w3.org/1999/xlink" width="460.8pt" height="345.6pt" viewBox="0 0 460.8 345.6" xmlns="http://www.w3.org/2000/svg" version="1.1">
 <metadata>
  <rdf:RDF xmlns:dc="http://purl.org/dc/elements/1.1/" xmlns:cc="http://creativecommons.org/ns#" xmlns:rdf="http://www.w3.org/1999/02/22-rdf-syntax-ns#">
   <cc:Work>
    <dc:type rdf:resource="http://purl.org/dc/dcmitype/StillImage"/>
    <dc:date>2025-01-09T15:14:36.975966</dc:date>
    <dc:format>image/svg+xml</dc:format>
    <dc:creator>
     <cc:Agent>
      <dc:title>Matplotlib v3.9.1, https://matplotlib.org/</dc:title>
     </cc:Agent>
    </dc:creator>
   </cc:Work>
  </rdf:RDF>
 </metadata>
 <defs>
  <style type="text/css">*{stroke-linejoin: round; stroke-linecap: butt}</style>
 </defs>
 <g id="figure_1">
  <g id="patch_1">
   <path d="M 0 345.6 
L 460.8 345.6 
L 460.8 0 
L 0 0 
z
" style="fill: #ffffff"/>
  </g>
  <g id="axes_1">
   <g id="patch_2">
    <path d="M 57.6 307.584 
L 414.72 307.584 
L 414.72 41.472 
L 57.6 41.472 
z
" style="fill: #ffffff"/>
   </g>
   <g id="matplotlib.axis_1">
    <g id="xtick_1">
     <g id="line2d_1">
      <defs>
       <path id="mc6f02d8b1b" d="M 0 0 
L 0 3.5 
" style="stroke: #000000; stroke-width: 0.8"/>
      </defs>
      <g>
       <use xlink:href="#mc6f02d8b1b" x="89.975771" y="307.584" style="stroke: #000000; stroke-width: 0.8"/>
      </g>
     </g>
     <g id="text_1">
      <!-- 425 -->
      <g transform="translate(80.432021 322.182437) scale(0.1 -0.1)">
       <defs>
        <path id="DejaVuSans-34" d="M 2419 4116 
L 825 1625 
L 2419 1625 
L 2419 4116 
z
M 2253 4666 
L 3047 4666 
L 3047 1625 
L 3713 1625 
L 3713 1100 
L 3047 1100 
L 3047 0 
L 2419 0 
L 2419 1100 
L 313 1100 
L 313 1709 
L 2253 4666 
z
" transform="scale(0.015625)"/>
        <path id="DejaVuSans-32" d="M 1228 531 
L 3431 531 
L 3431 0 
L 469 0 
L 469 531 
Q 828 903 1448 1529 
Q 2069 2156 2228 2338 
Q 2531 2678 2651 2914 
Q 2772 3150 2772 3378 
Q 2772 3750 2511 3984 
Q 2250 4219 1831 4219 
Q 1534 4219 1204 4116 
Q 875 4013 500 3803 
L 500 4441 
Q 881 4594 1212 4672 
Q 1544 4750 1819 4750 
Q 2544 4750 2975 4387 
Q 3406 4025 3406 3419 
Q 3406 3131 3298 2873 
Q 3191 2616 2906 2266 
Q 2828 2175 2409 1742 
Q 1991 1309 1228 531 
z
" transform="scale(0.015625)"/>
        <path id="DejaVuSans-35" d="M 691 4666 
L 3169 4666 
L 3169 4134 
L 1269 4134 
L 1269 2991 
Q 1406 3038 1543 3061 
Q 1681 3084 1819 3084 
Q 2600 3084 3056 2656 
Q 3513 2228 3513 1497 
Q 3513 744 3044 326 
Q 2575 -91 1722 -91 
Q 1428 -91 1123 -41 
Q 819 9 494 109 
L 494 744 
Q 775 591 1075 516 
Q 1375 441 1709 441 
Q 2250 441 2565 725 
Q 2881 1009 2881 1497 
Q 2881 1984 2565 2268 
Q 2250 2553 1709 2553 
Q 1456 2553 1204 2497 
Q 953 2441 691 2322 
L 691 4666 
z
" transform="scale(0.015625)"/>
       </defs>
       <use xlink:href="#DejaVuSans-34"/>
       <use xlink:href="#DejaVuSans-32" x="63.623047"/>
       <use xlink:href="#DejaVuSans-35" x="127.246094"/>
      </g>
     </g>
    </g>
    <g id="xtick_2">
     <g id="line2d_2">
      <g>
       <use xlink:href="#mc6f02d8b1b" x="134.817559" y="307.584" style="stroke: #000000; stroke-width: 0.8"/>
      </g>
     </g>
     <g id="text_2">
      <!-- 450 -->
      <g transform="translate(125.273809 322.182437) scale(0.1 -0.1)">
       <defs>
        <path id="DejaVuSans-30" d="M 2034 4250 
Q 1547 4250 1301 3770 
Q 1056 3291 1056 2328 
Q 1056 1369 1301 889 
Q 1547 409 2034 409 
Q 2525 409 2770 889 
Q 3016 1369 3016 2328 
Q 3016 3291 2770 3770 
Q 2525 4250 2034 4250 
z
M 2034 4750 
Q 2819 4750 3233 4129 
Q 3647 3509 3647 2328 
Q 3647 1150 3233 529 
Q 2819 -91 2034 -91 
Q 1250 -91 836 529 
Q 422 1150 422 2328 
Q 422 3509 836 4129 
Q 1250 4750 2034 4750 
z
" transform="scale(0.015625)"/>
       </defs>
       <use xlink:href="#DejaVuSans-34"/>
       <use xlink:href="#DejaVuSans-35" x="63.623047"/>
       <use xlink:href="#DejaVuSans-30" x="127.246094"/>
      </g>
     </g>
    </g>
    <g id="xtick_3">
     <g id="line2d_3">
      <g>
       <use xlink:href="#mc6f02d8b1b" x="179.659347" y="307.584" style="stroke: #000000; stroke-width: 0.8"/>
      </g>
     </g>
     <g id="text_3">
      <!-- 475 -->
      <g transform="translate(170.115597 322.182437) scale(0.1 -0.1)">
       <defs>
        <path id="DejaVuSans-37" d="M 525 4666 
L 3525 4666 
L 3525 4397 
L 1831 0 
L 1172 0 
L 2766 4134 
L 525 4134 
L 525 4666 
z
" transform="scale(0.015625)"/>
       </defs>
       <use xlink:href="#DejaVuSans-34"/>
       <use xlink:href="#DejaVuSans-37" x="63.623047"/>
       <use xlink:href="#DejaVuSans-35" x="127.246094"/>
      </g>
     </g>
    </g>
    <g id="xtick_4">
     <g id="line2d_4">
      <g>
       <use xlink:href="#mc6f02d8b1b" x="224.501135" y="307.584" style="stroke: #000000; stroke-width: 0.8"/>
      </g>
     </g>
     <g id="text_4">
      <!-- 500 -->
      <g transform="translate(214.957385 322.182437) scale(0.1 -0.1)">
       <use xlink:href="#DejaVuSans-35"/>
       <use xlink:href="#DejaVuSans-30" x="63.623047"/>
       <use xlink:href="#DejaVuSans-30" x="127.246094"/>
      </g>
     </g>
    </g>
    <g id="xtick_5">
     <g id="line2d_5">
      <g>
       <use xlink:href="#mc6f02d8b1b" x="269.342923" y="307.584" style="stroke: #000000; stroke-width: 0.8"/>
      </g>
     </g>
     <g id="text_5">
      <!-- 525 -->
      <g transform="translate(259.799173 322.182437) scale(0.1 -0.1)">
       <use xlink:href="#DejaVuSans-35"/>
       <use xlink:href="#DejaVuSans-32" x="63.623047"/>
       <use xlink:href="#DejaVuSans-35" x="127.246094"/>
      </g>
     </g>
    </g>
    <g id="xtick_6">
     <g id="line2d_6">
      <g>
       <use xlink:href="#mc6f02d8b1b" x="314.184711" y="307.584" style="stroke: #000000; stroke-width: 0.8"/>
      </g>
     </g>
     <g id="text_6">
      <!-- 550 -->
      <g transform="translate(304.640961 322.182437) scale(0.1 -0.1)">
       <use xlink:href="#DejaVuSans-35"/>
       <use xlink:href="#DejaVuSans-35" x="63.623047"/>
       <use xlink:href="#DejaVuSans-30" x="127.246094"/>
      </g>
     </g>
    </g>
    <g id="xtick_7">
     <g id="line2d_7">
      <g>
       <use xlink:href="#mc6f02d8b1b" x="359.026499" y="307.584" style="stroke: #000000; stroke-width: 0.8"/>
      </g>
     </g>
     <g id="text_7">
      <!-- 575 -->
      <g transform="translate(349.482749 322.182437) scale(0.1 -0.1)">
       <use xlink:href="#DejaVuSans-35"/>
       <use xlink:href="#DejaVuSans-37" x="63.623047"/>
       <use xlink:href="#DejaVuSans-35" x="127.246094"/>
      </g>
     </g>
    </g>
    <g id="xtick_8">
     <g id="line2d_8">
      <g>
       <use xlink:href="#mc6f02d8b1b" x="403.868287" y="307.584" style="stroke: #000000; stroke-width: 0.8"/>
      </g>
     </g>
     <g id="text_8">
      <!-- 600 -->
      <g transform="translate(394.324537 322.182437) scale(0.1 -0.1)">
       <defs>
        <path id="DejaVuSans-36" d="M 2113 2584 
Q 1688 2584 1439 2293 
Q 1191 2003 1191 1497 
Q 1191 994 1439 701 
Q 1688 409 2113 409 
Q 2538 409 2786 701 
Q 3034 994 3034 1497 
Q 3034 2003 2786 2293 
Q 2538 2584 2113 2584 
z
M 3366 4563 
L 3366 3988 
Q 3128 4100 2886 4159 
Q 2644 4219 2406 4219 
Q 1781 4219 1451 3797 
Q 1122 3375 1075 2522 
Q 1259 2794 1537 2939 
Q 1816 3084 2150 3084 
Q 2853 3084 3261 2657 
Q 3669 2231 3669 1497 
Q 3669 778 3244 343 
Q 2819 -91 2113 -91 
Q 1303 -91 875 529 
Q 447 1150 447 2328 
Q 447 3434 972 4092 
Q 1497 4750 2381 4750 
Q 2619 4750 2861 4703 
Q 3103 4656 3366 4563 
z
" transform="scale(0.015625)"/>
       </defs>
       <use xlink:href="#DejaVuSans-36"/>
       <use xlink:href="#DejaVuSans-30" x="63.623047"/>
       <use xlink:href="#DejaVuSans-30" x="127.246094"/>
      </g>
     </g>
    </g>
   </g>
   <g id="matplotlib.axis_2">
    <g id="ytick_1">
     <g id="line2d_9">
      <defs>
       <path id="m3a985f4651" d="M 0 0 
L -3.5 0 
" style="stroke: #000000; stroke-width: 0.8"/>
      </defs>
      <g>
       <use xlink:href="#m3a985f4651" x="57.6" y="290.171077" style="stroke: #000000; stroke-width: 0.8"/>
      </g>
     </g>
     <g id="text_9">
      <!-- 175 -->
      <g transform="translate(31.5125 293.970296) scale(0.1 -0.1)">
       <defs>
        <path id="DejaVuSans-31" d="M 794 531 
L 1825 531 
L 1825 4091 
L 703 3866 
L 703 4441 
L 1819 4666 
L 2450 4666 
L 2450 531 
L 3481 531 
L 3481 0 
L 794 0 
L 794 531 
z
" transform="scale(0.015625)"/>
       </defs>
       <use xlink:href="#DejaVuSans-31"/>
       <use xlink:href="#DejaVuSans-37" x="63.623047"/>
       <use xlink:href="#DejaVuSans-35" x="127.246094"/>
      </g>
     </g>
    </g>
    <g id="ytick_2">
     <g id="line2d_10">
      <g>
       <use xlink:href="#m3a985f4651" x="57.6" y="256.940308" style="stroke: #000000; stroke-width: 0.8"/>
      </g>
     </g>
     <g id="text_10">
      <!-- 200 -->
      <g transform="translate(31.5125 260.739526) scale(0.1 -0.1)">
       <use xlink:href="#DejaVuSans-32"/>
       <use xlink:href="#DejaVuSans-30" x="63.623047"/>
       <use xlink:href="#DejaVuSans-30" x="127.246094"/>
      </g>
     </g>
    </g>
    <g id="ytick_3">
     <g id="line2d_11">
      <g>
       <use xlink:href="#m3a985f4651" x="57.6" y="223.709538" style="stroke: #000000; stroke-width: 0.8"/>
      </g>
     </g>
     <g id="text_11">
      <!-- 225 -->
      <g transform="translate(31.5125 227.508757) scale(0.1 -0.1)">
       <use xlink:href="#DejaVuSans-32"/>
       <use xlink:href="#DejaVuSans-32" x="63.623047"/>
       <use xlink:href="#DejaVuSans-35" x="127.246094"/>
      </g>
     </g>
    </g>
    <g id="ytick_4">
     <g id="line2d_12">
      <g>
       <use xlink:href="#m3a985f4651" x="57.6" y="190.478769" style="stroke: #000000; stroke-width: 0.8"/>
      </g>
     </g>
     <g id="text_12">
      <!-- 250 -->
      <g transform="translate(31.5125 194.277988) scale(0.1 -0.1)">
       <use xlink:href="#DejaVuSans-32"/>
       <use xlink:href="#DejaVuSans-35" x="63.623047"/>
       <use xlink:href="#DejaVuSans-30" x="127.246094"/>
      </g>
     </g>
    </g>
    <g id="ytick_5">
     <g id="line2d_13">
      <g>
       <use xlink:href="#m3a985f4651" x="57.6" y="157.248" style="stroke: #000000; stroke-width: 0.8"/>
      </g>
     </g>
     <g id="text_13">
      <!-- 275 -->
      <g transform="translate(31.5125 161.047219) scale(0.1 -0.1)">
       <use xlink:href="#DejaVuSans-32"/>
       <use xlink:href="#DejaVuSans-37" x="63.623047"/>
       <use xlink:href="#DejaVuSans-35" x="127.246094"/>
      </g>
     </g>
    </g>
    <g id="ytick_6">
     <g id="line2d_14">
      <g>
       <use xlink:href="#m3a985f4651" x="57.6" y="124.017231" style="stroke: #000000; stroke-width: 0.8"/>
      </g>
     </g>
     <g id="text_14">
      <!-- 300 -->
      <g transform="translate(31.5125 127.81645) scale(0.1 -0.1)">
       <defs>
        <path id="DejaVuSans-33" d="M 2597 2516 
Q 3050 2419 3304 2112 
Q 3559 1806 3559 1356 
Q 3559 666 3084 287 
Q 2609 -91 1734 -91 
Q 1441 -91 1130 -33 
Q 819 25 488 141 
L 488 750 
Q 750 597 1062 519 
Q 1375 441 1716 441 
Q 2309 441 2620 675 
Q 2931 909 2931 1356 
Q 2931 1769 2642 2001 
Q 2353 2234 1838 2234 
L 1294 2234 
L 1294 2753 
L 1863 2753 
Q 2328 2753 2575 2939 
Q 2822 3125 2822 3475 
Q 2822 3834 2567 4026 
Q 2313 4219 1838 4219 
Q 1578 4219 1281 4162 
Q 984 4106 628 3988 
L 628 4550 
Q 988 4650 1302 4700 
Q 1616 4750 1894 4750 
Q 2613 4750 3031 4423 
Q 3450 4097 3450 3541 
Q 3450 3153 3228 2886 
Q 3006 2619 2597 2516 
z
" transform="scale(0.015625)"/>
       </defs>
       <use xlink:href="#DejaVuSans-33"/>
       <use xlink:href="#DejaVuSans-30" x="63.623047"/>
       <use xlink:href="#DejaVuSans-30" x="127.246094"/>
      </g>
     </g>
    </g>
    <g id="ytick_7">
     <g id="line2d_15">
      <g>
       <use xlink:href="#m3a985f4651" x="57.6" y="90.786462" style="stroke: #000000; stroke-width: 0.8"/>
      </g>
     </g>
     <g id="text_15">
      <!-- 325 -->
      <g transform="translate(31.5125 94.58568) scale(0.1 -0.1)">
       <use xlink:href="#DejaVuSans-33"/>
       <use xlink:href="#DejaVuSans-32" x="63.623047"/>
       <use xlink:href="#DejaVuSans-35" x="127.246094"/>
      </g>
     </g>
    </g>
    <g id="ytick_8">
     <g id="line2d_16">
      <g>
       <use xlink:href="#m3a985f4651" x="57.6" y="57.555692" style="stroke: #000000; stroke-width: 0.8"/>
      </g>
     </g>
     <g id="text_16">
      <!-- 350 -->
      <g transform="translate(31.5125 61.354911) scale(0.1 -0.1)">
       <use xlink:href="#DejaVuSans-33"/>
       <use xlink:href="#DejaVuSans-35" x="63.623047"/>
       <use xlink:href="#DejaVuSans-30" x="127.246094"/>
      </g>
     </g>
    </g>
   </g>
   <g id="line2d_17">
    <path d="M 242.43785 214.404923 
L 244.231522 214.404923 
L 244.231522 211.746462 
L 246.025193 211.746462 
L 246.025193 209.088 
L 247.818865 209.088 
L 247.818865 207.758769 
L 249.612536 207.758769 
L 249.612536 206.429538 
L 253.199879 206.429538 
L 253.199879 205.100308 
L 254.993551 205.100308 
L 254.993551 203.771077 
L 256.787223 203.771077 
L 256.787223 202.441846 
L 258.580894 202.441846 
L 258.580894 201.112615 
L 263.961909 201.112615 
L 263.961909 199.783385 
L 267.549252 199.783385 
L 267.549252 198.454154 
L 287.279638 198.454154 
L 287.279638 197.124923 
L 301.629011 197.124923 
L 301.629011 195.795692 
L 305.216354 195.795692 
L 305.216354 194.466462 
L 308.803697 194.466462 
L 308.803697 193.137231 
L 312.39104 193.137231 
L 312.39104 191.808 
L 314.184711 191.808 
L 314.184711 190.478769 
L 315.978383 190.478769 
L 315.978383 189.149538 
L 317.772054 189.149538 
L 317.772054 187.820308 
L 319.565726 187.820308 
L 319.565726 186.491077 
L 321.359397 186.491077 
L 321.359397 185.161846 
L 323.153069 185.161846 
L 323.153069 183.832615 
L 324.94674 183.832615 
L 324.94674 182.503385 
L 326.740412 182.503385 
L 326.740412 181.174154 
L 330.327755 181.174154 
L 330.327755 179.844923 
L 332.121426 179.844923 
L 332.121426 178.515692 
L 335.708769 178.515692 
L 335.708769 177.186462 
L 339.296113 177.186462 
L 339.296113 175.857231 
L 342.883456 175.857231 
L 342.883456 174.528 
L 346.470799 174.528 
L 346.470799 171.869538 
L 348.26447 171.869538 
L 348.26447 166.552615 
L 346.470799 166.552615 
L 346.470799 165.223385 
L 339.296113 165.223385 
L 339.296113 163.894154 
L 317.772054 163.894154 
L 317.772054 162.564923 
L 315.978383 162.564923 
L 315.978383 159.906462 
L 317.772054 159.906462 
L 317.772054 158.577231 
L 319.565726 158.577231 
L 319.565726 155.918769 
L 323.153069 155.918769 
L 323.153069 153.260308 
L 324.94674 153.260308 
L 324.94674 151.931077 
L 326.740412 151.931077 
L 326.740412 149.272615 
L 328.534083 149.272615 
L 328.534083 143.955692 
L 326.740412 143.955692 
L 326.740412 142.626462 
L 314.184711 142.626462 
L 314.184711 143.955692 
L 310.597368 143.955692 
L 310.597368 145.284923 
L 307.010025 145.284923 
L 307.010025 146.614154 
L 303.422682 146.614154 
L 303.422682 147.943385 
L 301.629011 147.943385 
L 301.629011 149.272615 
L 298.041668 149.272615 
L 298.041668 150.601846 
L 296.247996 150.601846 
L 296.247996 151.931077 
L 292.660653 151.931077 
L 292.660653 153.260308 
L 290.866981 153.260308 
L 290.866981 154.589538 
L 289.07331 154.589538 
L 289.07331 155.918769 
L 287.279638 155.918769 
L 287.279638 157.248 
L 285.485967 157.248 
L 285.485967 158.577231 
L 281.898624 158.577231 
L 281.898624 159.906462 
L 280.104952 159.906462 
L 280.104952 161.235692 
L 278.311281 161.235692 
L 278.311281 162.564923 
L 276.517609 162.564923 
L 276.517609 163.894154 
L 274.723938 163.894154 
L 274.723938 165.223385 
L 272.930266 165.223385 
L 272.930266 166.552615 
L 271.136595 166.552615 
L 271.136595 167.881846 
L 269.342923 167.881846 
L 269.342923 169.211077 
L 267.549252 169.211077 
L 267.549252 170.540308 
L 265.75558 170.540308 
L 265.75558 171.869538 
L 263.961909 171.869538 
L 263.961909 173.198769 
L 262.168237 173.198769 
L 262.168237 174.528 
L 249.612536 174.528 
L 249.612536 170.540308 
L 251.406208 170.540308 
L 251.406208 167.881846 
L 253.199879 167.881846 
L 253.199879 163.894154 
L 256.787223 163.894154 
L 256.787223 162.564923 
L 258.580894 162.564923 
L 258.580894 161.235692 
L 260.374566 161.235692 
L 260.374566 158.577231 
L 262.168237 158.577231 
L 262.168237 157.248 
L 263.961909 157.248 
L 263.961909 154.589538 
L 265.75558 154.589538 
L 265.75558 151.931077 
L 267.549252 151.931077 
L 267.549252 150.601846 
L 269.342923 150.601846 
L 269.342923 149.272615 
L 271.136595 149.272615 
L 271.136595 146.614154 
L 272.930266 146.614154 
L 272.930266 145.284923 
L 274.723938 145.284923 
L 274.723938 143.955692 
L 276.517609 143.955692 
L 276.517609 141.297231 
L 278.311281 141.297231 
L 278.311281 139.968 
L 280.104952 139.968 
L 280.104952 137.309538 
L 281.898624 137.309538 
L 281.898624 135.980308 
L 283.692295 135.980308 
L 283.692295 133.321846 
L 285.485967 133.321846 
L 285.485967 131.992615 
L 287.279638 131.992615 
L 287.279638 129.334154 
L 289.07331 129.334154 
L 289.07331 128.004923 
L 290.866981 128.004923 
L 290.866981 125.346462 
L 292.660653 125.346462 
L 292.660653 122.688 
L 294.454324 122.688 
L 294.454324 121.358769 
L 296.247996 121.358769 
L 296.247996 118.700308 
L 298.041668 118.700308 
L 298.041668 116.041846 
L 299.835339 116.041846 
L 299.835339 114.712615 
L 301.629011 114.712615 
L 301.629011 112.054154 
L 303.422682 112.054154 
L 303.422682 109.395692 
L 305.216354 109.395692 
L 305.216354 106.737231 
L 307.010025 106.737231 
L 307.010025 102.749538 
L 308.803697 102.749538 
L 308.803697 100.091077 
L 310.597368 100.091077 
L 310.597368 96.103385 
L 312.39104 96.103385 
L 312.39104 89.457231 
L 310.597368 89.457231 
L 310.597368 88.128 
L 308.803697 88.128 
L 308.803697 86.798769 
L 307.010025 86.798769 
L 307.010025 85.469538 
L 305.216354 85.469538 
L 305.216354 84.140308 
L 301.629011 84.140308 
L 301.629011 82.811077 
L 283.692295 82.811077 
L 283.692295 84.140308 
L 278.311281 84.140308 
L 278.311281 82.811077 
L 276.517609 82.811077 
L 276.517609 81.481846 
L 278.311281 81.481846 
L 278.311281 78.823385 
L 280.104952 78.823385 
L 280.104952 77.494154 
L 281.898624 77.494154 
L 281.898624 76.164923 
L 283.692295 76.164923 
L 283.692295 73.506462 
L 285.485967 73.506462 
L 285.485967 72.177231 
L 287.279638 72.177231 
L 287.279638 70.848 
L 289.07331 70.848 
L 289.07331 68.189538 
L 290.866981 68.189538 
L 290.866981 65.531077 
L 292.660653 65.531077 
L 292.660653 53.568 
L 287.279638 53.568 
L 287.279638 54.897231 
L 283.692295 54.897231 
L 283.692295 56.226462 
L 280.104952 56.226462 
L 280.104952 57.555692 
L 278.311281 57.555692 
L 278.311281 58.884923 
L 276.517609 58.884923 
L 276.517609 60.214154 
L 272.930266 60.214154 
L 272.930266 61.543385 
L 271.136595 61.543385 
L 271.136595 62.872615 
L 267.549252 62.872615 
L 267.549252 64.201846 
L 265.75558 64.201846 
L 265.75558 65.531077 
L 263.961909 65.531077 
L 263.961909 66.860308 
L 262.168237 66.860308 
L 262.168237 69.518769 
L 260.374566 69.518769 
L 260.374566 70.848 
L 258.580894 70.848 
L 258.580894 73.506462 
L 256.787223 73.506462 
L 256.787223 77.494154 
L 254.993551 77.494154 
L 254.993551 82.811077 
L 253.199879 82.811077 
L 253.199879 93.444923 
L 254.993551 93.444923 
L 254.993551 106.737231 
L 253.199879 106.737231 
L 253.199879 112.054154 
L 251.406208 112.054154 
L 251.406208 117.371077 
L 249.612536 117.371077 
L 249.612536 124.017231 
L 247.818865 124.017231 
L 247.818865 129.334154 
L 246.025193 129.334154 
L 246.025193 139.968 
L 244.231522 139.968 
L 244.231522 147.943385 
L 242.43785 147.943385 
L 242.43785 151.931077 
L 240.644179 151.931077 
L 240.644179 155.918769 
L 238.850507 155.918769 
L 238.850507 159.906462 
L 237.056836 159.906462 
L 237.056836 197.124923 
L 235.263164 197.124923 
L 235.263164 199.783385 
L 233.469493 199.783385 
L 233.469493 193.137231 
L 231.675821 193.137231 
L 231.675821 187.820308 
L 229.88215 187.820308 
L 229.88215 182.503385 
L 228.088478 182.503385 
L 228.088478 178.515692 
L 226.294807 178.515692 
L 226.294807 173.198769 
L 224.501135 173.198769 
L 224.501135 163.894154 
L 222.707464 163.894154 
L 222.707464 154.589538 
L 220.913792 154.589538 
L 220.913792 135.980308 
L 219.120121 135.980308 
L 219.120121 126.675692 
L 217.326449 126.675692 
L 217.326449 69.518769 
L 215.532777 69.518769 
L 215.532777 68.189538 
L 213.739106 68.189538 
L 213.739106 65.531077 
L 211.945434 65.531077 
L 211.945434 64.201846 
L 208.358091 64.201846 
L 208.358091 62.872615 
L 192.215048 62.872615 
L 192.215048 64.201846 
L 190.421376 64.201846 
L 190.421376 65.531077 
L 188.627705 65.531077 
L 188.627705 77.494154 
L 186.834033 77.494154 
L 186.834033 78.823385 
L 174.278332 78.823385 
L 174.278332 80.152615 
L 170.690989 80.152615 
L 170.690989 81.481846 
L 167.103646 81.481846 
L 167.103646 82.811077 
L 165.309975 82.811077 
L 165.309975 84.140308 
L 163.516303 84.140308 
L 163.516303 86.798769 
L 161.722632 86.798769 
L 161.722632 97.432615 
L 163.516303 97.432615 
L 163.516303 100.091077 
L 165.309975 100.091077 
L 165.309975 102.749538 
L 167.103646 102.749538 
L 167.103646 105.408 
L 168.897318 105.408 
L 168.897318 106.737231 
L 170.690989 106.737231 
L 170.690989 109.395692 
L 172.484661 109.395692 
L 172.484661 110.724923 
L 174.278332 110.724923 
L 174.278332 113.383385 
L 176.072004 113.383385 
L 176.072004 116.041846 
L 177.865676 116.041846 
L 177.865676 118.700308 
L 179.659347 118.700308 
L 179.659347 121.358769 
L 181.453019 121.358769 
L 181.453019 124.017231 
L 183.24669 124.017231 
L 183.24669 126.675692 
L 185.040362 126.675692 
L 185.040362 129.334154 
L 186.834033 129.334154 
L 186.834033 131.992615 
L 188.627705 131.992615 
L 188.627705 134.651077 
L 190.421376 134.651077 
L 190.421376 138.638769 
L 192.215048 138.638769 
L 192.215048 141.297231 
L 194.008719 141.297231 
L 194.008719 145.284923 
L 195.802391 145.284923 
L 195.802391 147.943385 
L 197.596062 147.943385 
L 197.596062 151.931077 
L 199.389734 151.931077 
L 199.389734 154.589538 
L 201.183405 154.589538 
L 201.183405 158.577231 
L 202.977077 158.577231 
L 202.977077 161.235692 
L 204.770748 161.235692 
L 204.770748 163.894154 
L 206.56442 163.894154 
L 206.56442 170.540308 
L 208.358091 170.540308 
L 208.358091 178.515692 
L 206.56442 178.515692 
L 206.56442 183.832615 
L 204.770748 183.832615 
L 204.770748 186.491077 
L 202.977077 186.491077 
L 202.977077 187.820308 
L 201.183405 187.820308 
L 201.183405 183.832615 
L 199.389734 183.832615 
L 199.389734 177.186462 
L 197.596062 177.186462 
L 197.596062 171.869538 
L 195.802391 171.869538 
L 195.802391 166.552615 
L 194.008719 166.552615 
L 194.008719 162.564923 
L 192.215048 162.564923 
L 192.215048 158.577231 
L 190.421376 158.577231 
L 190.421376 153.260308 
L 188.627705 153.260308 
L 188.627705 147.943385 
L 186.834033 147.943385 
L 186.834033 145.284923 
L 185.040362 145.284923 
L 185.040362 143.955692 
L 183.24669 143.955692 
L 183.24669 142.626462 
L 181.453019 142.626462 
L 181.453019 139.968 
L 179.659347 139.968 
L 179.659347 138.638769 
L 177.865676 138.638769 
L 177.865676 137.309538 
L 176.072004 137.309538 
L 176.072004 134.651077 
L 174.278332 134.651077 
L 174.278332 133.321846 
L 172.484661 133.321846 
L 172.484661 130.663385 
L 170.690989 130.663385 
L 170.690989 129.334154 
L 168.897318 129.334154 
L 168.897318 128.004923 
L 167.103646 128.004923 
L 167.103646 125.346462 
L 165.309975 125.346462 
L 165.309975 124.017231 
L 163.516303 124.017231 
L 163.516303 121.358769 
L 161.722632 121.358769 
L 161.722632 118.700308 
L 159.92896 118.700308 
L 159.92896 117.371077 
L 158.135289 117.371077 
L 158.135289 116.041846 
L 156.341617 116.041846 
L 156.341617 114.712615 
L 154.547946 114.712615 
L 154.547946 112.054154 
L 152.754274 112.054154 
L 152.754274 110.724923 
L 150.960603 110.724923 
L 150.960603 109.395692 
L 149.166931 109.395692 
L 149.166931 108.066462 
L 147.37326 108.066462 
L 147.37326 106.737231 
L 145.579588 106.737231 
L 145.579588 105.408 
L 138.404902 105.408 
L 138.404902 106.737231 
L 134.817559 106.737231 
L 134.817559 108.066462 
L 133.023887 108.066462 
L 133.023887 109.395692 
L 131.230216 109.395692 
L 131.230216 110.724923 
L 129.436544 110.724923 
L 129.436544 117.371077 
L 131.230216 117.371077 
L 131.230216 121.358769 
L 129.436544 121.358769 
L 129.436544 122.688 
L 124.05553 122.688 
L 124.05553 121.358769 
L 116.880844 121.358769 
L 116.880844 120.029538 
L 113.293501 120.029538 
L 113.293501 118.700308 
L 109.706158 118.700308 
L 109.706158 117.371077 
L 104.325143 117.371077 
L 104.325143 116.041846 
L 93.563114 116.041846 
L 93.563114 118.700308 
L 91.769442 118.700308 
L 91.769442 126.675692 
L 93.563114 126.675692 
L 93.563114 129.334154 
L 95.356786 129.334154 
L 95.356786 130.663385 
L 97.150457 130.663385 
L 97.150457 131.992615 
L 98.944129 131.992615 
L 98.944129 134.651077 
L 102.531472 134.651077 
L 102.531472 135.980308 
L 104.325143 135.980308 
L 104.325143 137.309538 
L 106.118815 137.309538 
L 106.118815 138.638769 
L 109.706158 138.638769 
L 109.706158 139.968 
L 111.499829 139.968 
L 111.499829 141.297231 
L 115.087172 141.297231 
L 115.087172 142.626462 
L 118.674515 142.626462 
L 118.674515 143.955692 
L 122.261858 143.955692 
L 122.261858 145.284923 
L 124.05553 145.284923 
L 124.05553 146.614154 
L 127.642873 146.614154 
L 127.642873 147.943385 
L 131.230216 147.943385 
L 131.230216 149.272615 
L 133.023887 149.272615 
L 133.023887 150.601846 
L 134.817559 150.601846 
L 134.817559 151.931077 
L 136.611231 151.931077 
L 136.611231 153.260308 
L 138.404902 153.260308 
L 138.404902 154.589538 
L 141.992245 154.589538 
L 141.992245 155.918769 
L 143.785917 155.918769 
L 143.785917 157.248 
L 145.579588 157.248 
L 145.579588 158.577231 
L 147.37326 158.577231 
L 147.37326 159.906462 
L 149.166931 159.906462 
L 149.166931 161.235692 
L 150.960603 161.235692 
L 150.960603 162.564923 
L 152.754274 162.564923 
L 152.754274 163.894154 
L 154.547946 163.894154 
L 154.547946 165.223385 
L 156.341617 165.223385 
L 156.341617 166.552615 
L 158.135289 166.552615 
L 158.135289 167.881846 
L 159.92896 167.881846 
L 159.92896 169.211077 
L 161.722632 169.211077 
L 161.722632 170.540308 
L 163.516303 170.540308 
L 163.516303 171.869538 
L 165.309975 171.869538 
L 165.309975 173.198769 
L 167.103646 173.198769 
L 167.103646 174.528 
L 168.897318 174.528 
L 168.897318 177.186462 
L 170.690989 177.186462 
L 170.690989 178.515692 
L 172.484661 178.515692 
L 172.484661 179.844923 
L 174.278332 179.844923 
L 174.278332 181.174154 
L 176.072004 181.174154 
L 176.072004 182.503385 
L 177.865676 182.503385 
L 177.865676 183.832615 
L 179.659347 183.832615 
L 179.659347 185.161846 
L 181.453019 185.161846 
L 181.453019 186.491077 
L 183.24669 186.491077 
L 183.24669 187.820308 
L 185.040362 187.820308 
L 185.040362 190.478769 
L 186.834033 190.478769 
L 186.834033 191.808 
L 188.627705 191.808 
L 188.627705 193.137231 
L 190.421376 193.137231 
L 190.421376 194.466462 
L 192.215048 194.466462 
L 192.215048 198.454154 
L 194.008719 198.454154 
L 194.008719 201.112615 
L 192.215048 201.112615 
L 192.215048 199.783385 
L 190.421376 199.783385 
L 190.421376 198.454154 
L 186.834033 198.454154 
L 186.834033 197.124923 
L 185.040362 197.124923 
L 185.040362 195.795692 
L 183.24669 195.795692 
L 183.24669 194.466462 
L 181.453019 194.466462 
L 181.453019 193.137231 
L 177.865676 193.137231 
L 177.865676 191.808 
L 176.072004 191.808 
L 176.072004 190.478769 
L 174.278332 190.478769 
L 174.278332 189.149538 
L 172.484661 189.149538 
L 172.484661 187.820308 
L 170.690989 187.820308 
L 170.690989 186.491077 
L 168.897318 186.491077 
L 168.897318 185.161846 
L 165.309975 185.161846 
L 165.309975 183.832615 
L 163.516303 183.832615 
L 163.516303 182.503385 
L 159.92896 182.503385 
L 159.92896 181.174154 
L 158.135289 181.174154 
L 158.135289 179.844923 
L 156.341617 179.844923 
L 156.341617 178.515692 
L 154.547946 178.515692 
L 154.547946 177.186462 
L 150.960603 177.186462 
L 150.960603 175.857231 
L 149.166931 175.857231 
L 149.166931 174.528 
L 147.37326 174.528 
L 147.37326 173.198769 
L 145.579588 173.198769 
L 145.579588 171.869538 
L 143.785917 171.869538 
L 143.785917 170.540308 
L 141.992245 170.540308 
L 141.992245 169.211077 
L 140.198574 169.211077 
L 140.198574 167.881846 
L 138.404902 167.881846 
L 138.404902 166.552615 
L 136.611231 166.552615 
L 136.611231 165.223385 
L 134.817559 165.223385 
L 134.817559 163.894154 
L 133.023887 163.894154 
L 133.023887 162.564923 
L 131.230216 162.564923 
L 131.230216 161.235692 
L 129.436544 161.235692 
L 129.436544 159.906462 
L 127.642873 159.906462 
L 127.642873 158.577231 
L 125.849201 158.577231 
L 125.849201 157.248 
L 124.05553 157.248 
L 124.05553 155.918769 
L 120.468187 155.918769 
L 120.468187 154.589538 
L 118.674515 154.589538 
L 118.674515 153.260308 
L 115.087172 153.260308 
L 115.087172 151.931077 
L 111.499829 151.931077 
L 111.499829 150.601846 
L 107.912486 150.601846 
L 107.912486 149.272615 
L 104.325143 149.272615 
L 104.325143 147.943385 
L 100.7378 147.943385 
L 100.7378 146.614154 
L 98.944129 146.614154 
L 98.944129 145.284923 
L 97.150457 145.284923 
L 97.150457 143.955692 
L 93.563114 143.955692 
L 93.563114 142.626462 
L 91.769442 142.626462 
L 91.769442 139.968 
L 89.975771 139.968 
L 89.975771 138.638769 
L 88.182099 138.638769 
L 88.182099 137.309538 
L 81.007413 137.309538 
L 81.007413 138.638769 
L 77.42007 138.638769 
L 77.42007 145.284923 
L 79.213742 145.284923 
L 79.213742 149.272615 
L 77.42007 149.272615 
L 77.42007 150.601846 
L 75.626399 150.601846 
L 75.626399 151.931077 
L 73.832727 151.931077 
L 73.832727 155.918769 
L 75.626399 155.918769 
L 75.626399 157.248 
L 77.42007 157.248 
L 77.42007 158.577231 
L 79.213742 158.577231 
L 79.213742 159.906462 
L 81.007413 159.906462 
L 81.007413 161.235692 
L 82.801085 161.235692 
L 82.801085 162.564923 
L 84.594756 162.564923 
L 84.594756 163.894154 
L 86.388428 163.894154 
L 86.388428 165.223385 
L 88.182099 165.223385 
L 88.182099 166.552615 
L 89.975771 166.552615 
L 89.975771 167.881846 
L 91.769442 167.881846 
L 91.769442 169.211077 
L 93.563114 169.211077 
L 93.563114 170.540308 
L 95.356786 170.540308 
L 95.356786 171.869538 
L 97.150457 171.869538 
L 97.150457 173.198769 
L 100.7378 173.198769 
L 100.7378 174.528 
L 102.531472 174.528 
L 102.531472 175.857231 
L 104.325143 175.857231 
L 104.325143 177.186462 
L 106.118815 177.186462 
L 106.118815 178.515692 
L 107.912486 178.515692 
L 107.912486 179.844923 
L 109.706158 179.844923 
L 109.706158 181.174154 
L 111.499829 181.174154 
L 111.499829 182.503385 
L 115.087172 182.503385 
L 115.087172 183.832615 
L 116.880844 183.832615 
L 116.880844 185.161846 
L 118.674515 185.161846 
L 118.674515 186.491077 
L 122.261858 186.491077 
L 122.261858 187.820308 
L 124.05553 187.820308 
L 124.05553 189.149538 
L 127.642873 189.149538 
L 127.642873 190.478769 
L 131.230216 190.478769 
L 131.230216 191.808 
L 134.817559 191.808 
L 134.817559 193.137231 
L 138.404902 193.137231 
L 138.404902 194.466462 
L 141.992245 194.466462 
L 141.992245 195.795692 
L 145.579588 195.795692 
L 145.579588 197.124923 
L 149.166931 197.124923 
L 149.166931 198.454154 
L 152.754274 198.454154 
L 152.754274 199.783385 
L 156.341617 199.783385 
L 156.341617 201.112615 
L 159.92896 201.112615 
L 159.92896 202.441846 
L 161.722632 202.441846 
L 161.722632 203.771077 
L 165.309975 203.771077 
L 165.309975 205.100308 
L 168.897318 205.100308 
L 168.897318 206.429538 
L 172.484661 206.429538 
L 172.484661 207.758769 
L 176.072004 207.758769 
L 176.072004 209.088 
L 177.865676 209.088 
L 177.865676 210.417231 
L 181.453019 210.417231 
L 181.453019 211.746462 
L 185.040362 211.746462 
L 185.040362 213.075692 
L 186.834033 213.075692 
L 186.834033 214.404923 
L 190.421376 214.404923 
L 190.421376 215.734154 
L 192.215048 215.734154 
L 192.215048 217.063385 
L 195.802391 217.063385 
L 195.802391 218.392615 
L 197.596062 218.392615 
L 197.596062 219.721846 
L 201.183405 219.721846 
L 201.183405 222.380308 
L 199.389734 222.380308 
L 199.389734 225.038769 
L 197.596062 225.038769 
L 197.596062 226.368 
L 195.802391 226.368 
L 195.802391 227.697231 
L 194.008719 227.697231 
L 194.008719 229.026462 
L 192.215048 229.026462 
L 192.215048 231.684923 
L 190.421376 231.684923 
L 190.421376 234.343385 
L 188.627705 234.343385 
L 188.627705 237.001846 
L 186.834033 237.001846 
L 186.834033 238.331077 
L 185.040362 238.331077 
L 185.040362 242.318769 
L 183.24669 242.318769 
L 183.24669 246.306462 
L 181.453019 246.306462 
L 181.453019 259.598769 
L 183.24669 259.598769 
L 183.24669 263.586462 
L 185.040362 263.586462 
L 185.040362 264.915692 
L 197.596062 264.915692 
L 197.596062 260.928 
L 199.389734 260.928 
L 199.389734 256.940308 
L 201.183405 256.940308 
L 201.183405 250.294154 
L 202.977077 250.294154 
L 202.977077 235.672615 
L 206.56442 235.672615 
L 206.56442 234.343385 
L 208.358091 234.343385 
L 208.358091 233.014154 
L 215.532777 233.014154 
L 215.532777 237.001846 
L 217.326449 237.001846 
L 217.326449 242.318769 
L 215.532777 242.318769 
L 215.532777 263.586462 
L 217.326449 263.586462 
L 217.326449 268.903385 
L 219.120121 268.903385 
L 219.120121 272.891077 
L 220.913792 272.891077 
L 220.913792 276.878769 
L 222.707464 276.878769 
L 222.707464 280.866462 
L 224.501135 280.866462 
L 224.501135 283.524923 
L 226.294807 283.524923 
L 226.294807 286.183385 
L 228.088478 286.183385 
L 228.088478 287.512615 
L 229.88215 287.512615 
L 229.88215 288.841846 
L 231.675821 288.841846 
L 231.675821 290.171077 
L 233.469493 290.171077 
L 233.469493 291.500308 
L 238.850507 291.500308 
L 238.850507 290.171077 
L 240.644179 290.171077 
L 240.644179 286.183385 
L 242.43785 286.183385 
L 242.43785 278.208 
L 240.644179 278.208 
L 240.644179 270.232615 
L 238.850507 270.232615 
L 238.850507 263.586462 
L 237.056836 263.586462 
L 237.056836 256.940308 
L 235.263164 256.940308 
L 235.263164 248.964923 
L 237.056836 248.964923 
L 237.056836 246.306462 
L 238.850507 246.306462 
L 238.850507 244.977231 
L 244.231522 244.977231 
L 244.231522 246.306462 
L 246.025193 246.306462 
L 246.025193 250.294154 
L 247.818865 250.294154 
L 247.818865 255.611077 
L 249.612536 255.611077 
L 249.612536 258.269538 
L 251.406208 258.269538 
L 251.406208 262.257231 
L 253.199879 262.257231 
L 253.199879 263.586462 
L 254.993551 263.586462 
L 254.993551 264.915692 
L 256.787223 264.915692 
L 256.787223 267.574154 
L 258.580894 267.574154 
L 258.580894 270.232615 
L 260.374566 270.232615 
L 260.374566 271.561846 
L 262.168237 271.561846 
L 262.168237 274.220308 
L 263.961909 274.220308 
L 263.961909 275.549538 
L 265.75558 275.549538 
L 265.75558 278.208 
L 267.549252 278.208 
L 267.549252 280.866462 
L 269.342923 280.866462 
L 269.342923 283.524923 
L 271.136595 283.524923 
L 271.136595 286.183385 
L 272.930266 286.183385 
L 272.930266 288.841846 
L 274.723938 288.841846 
L 274.723938 290.171077 
L 276.517609 290.171077 
L 276.517609 291.500308 
L 278.311281 291.500308 
L 278.311281 292.829538 
L 280.104952 292.829538 
L 280.104952 294.158769 
L 281.898624 294.158769 
L 281.898624 295.488 
L 290.866981 295.488 
L 290.866981 294.158769 
L 294.454324 294.158769 
L 294.454324 292.829538 
L 296.247996 292.829538 
L 296.247996 291.500308 
L 298.041668 291.500308 
L 298.041668 290.171077 
L 299.835339 290.171077 
L 299.835339 288.841846 
L 301.629011 288.841846 
L 301.629011 286.183385 
L 303.422682 286.183385 
L 303.422682 283.524923 
L 305.216354 283.524923 
L 305.216354 279.537231 
L 307.010025 279.537231 
L 307.010025 275.549538 
L 305.216354 275.549538 
L 305.216354 272.891077 
L 303.422682 272.891077 
L 303.422682 271.561846 
L 315.978383 271.561846 
L 315.978383 270.232615 
L 328.534083 270.232615 
L 328.534083 268.903385 
L 332.121426 268.903385 
L 332.121426 267.574154 
L 335.708769 267.574154 
L 335.708769 266.244923 
L 337.502441 266.244923 
L 337.502441 264.915692 
L 339.296113 264.915692 
L 339.296113 263.586462 
L 341.089784 263.586462 
L 341.089784 262.257231 
L 342.883456 262.257231 
L 342.883456 255.611077 
L 341.089784 255.611077 
L 341.089784 254.281846 
L 337.502441 254.281846 
L 337.502441 252.952615 
L 335.708769 252.952615 
L 335.708769 251.623385 
L 332.121426 251.623385 
L 332.121426 250.294154 
L 319.565726 250.294154 
L 319.565726 251.623385 
L 307.010025 251.623385 
L 307.010025 252.952615 
L 294.454324 252.952615 
L 294.454324 251.623385 
L 278.311281 251.623385 
L 278.311281 250.294154 
L 272.930266 250.294154 
L 272.930266 248.964923 
L 267.549252 248.964923 
L 267.549252 247.635692 
L 263.961909 247.635692 
L 263.961909 246.306462 
L 262.168237 246.306462 
L 262.168237 243.648 
L 263.961909 243.648 
L 263.961909 242.318769 
L 269.342923 242.318769 
L 269.342923 240.989538 
L 278.311281 240.989538 
L 278.311281 242.318769 
L 285.485967 242.318769 
L 285.485967 240.989538 
L 298.041668 240.989538 
L 298.041668 239.660308 
L 305.216354 239.660308 
L 305.216354 238.331077 
L 312.39104 238.331077 
L 312.39104 237.001846 
L 319.565726 237.001846 
L 319.565726 235.672615 
L 324.94674 235.672615 
L 324.94674 234.343385 
L 330.327755 234.343385 
L 330.327755 233.014154 
L 335.708769 233.014154 
L 335.708769 231.684923 
L 341.089784 231.684923 
L 341.089784 230.355692 
L 346.470799 230.355692 
L 346.470799 229.026462 
L 350.058142 229.026462 
L 350.058142 227.697231 
L 355.439156 227.697231 
L 355.439156 226.368 
L 362.613842 226.368 
L 362.613842 225.038769 
L 369.788528 225.038769 
L 369.788528 223.709538 
L 376.963214 223.709538 
L 376.963214 222.380308 
L 380.550558 222.380308 
L 380.550558 221.051077 
L 385.931572 221.051077 
L 385.931572 219.721846 
L 389.518915 219.721846 
L 389.518915 218.392615 
L 394.89993 218.392615 
L 394.89993 217.063385 
L 396.693601 217.063385 
L 396.693601 215.734154 
L 398.487273 215.734154 
L 398.487273 211.746462 
L 396.693601 211.746462 
L 396.693601 209.088 
L 394.89993 209.088 
L 394.89993 207.758769 
L 393.106258 207.758769 
L 393.106258 206.429538 
L 389.518915 206.429538 
L 389.518915 205.100308 
L 387.725244 205.100308 
L 387.725244 203.771077 
L 384.137901 203.771077 
L 384.137901 202.441846 
L 382.344229 202.441846 
L 382.344229 201.112615 
L 384.137901 201.112615 
L 384.137901 199.783385 
L 385.931572 199.783385 
L 385.931572 198.454154 
L 387.725244 198.454154 
L 387.725244 195.795692 
L 389.518915 195.795692 
L 389.518915 185.161846 
L 387.725244 185.161846 
L 387.725244 182.503385 
L 385.931572 182.503385 
L 385.931572 181.174154 
L 384.137901 181.174154 
L 384.137901 179.844923 
L 382.344229 179.844923 
L 382.344229 178.515692 
L 376.963214 178.515692 
L 376.963214 179.844923 
L 375.169543 179.844923 
L 375.169543 181.174154 
L 373.375871 181.174154 
L 373.375871 183.832615 
L 371.5822 183.832615 
L 371.5822 185.161846 
L 369.788528 185.161846 
L 369.788528 186.491077 
L 367.994857 186.491077 
L 367.994857 189.149538 
L 366.201185 189.149538 
L 366.201185 190.478769 
L 364.407514 190.478769 
L 364.407514 191.808 
L 362.613842 191.808 
L 362.613842 193.137231 
L 359.026499 193.137231 
L 359.026499 194.466462 
L 357.232828 194.466462 
L 357.232828 195.795692 
L 355.439156 195.795692 
L 355.439156 197.124923 
L 353.645485 197.124923 
L 353.645485 198.454154 
L 351.851813 198.454154 
L 351.851813 199.783385 
L 350.058142 199.783385 
L 350.058142 201.112615 
L 348.26447 201.112615 
L 348.26447 202.441846 
L 344.677127 202.441846 
L 344.677127 203.771077 
L 342.883456 203.771077 
L 342.883456 205.100308 
L 341.089784 205.100308 
L 341.089784 206.429538 
L 337.502441 206.429538 
L 337.502441 207.758769 
L 335.708769 207.758769 
L 335.708769 209.088 
L 332.121426 209.088 
L 332.121426 210.417231 
L 330.327755 210.417231 
L 330.327755 211.746462 
L 326.740412 211.746462 
L 326.740412 213.075692 
L 324.94674 213.075692 
L 324.94674 214.404923 
L 321.359397 214.404923 
L 321.359397 215.734154 
L 319.565726 215.734154 
L 319.565726 217.063385 
L 315.978383 217.063385 
L 315.978383 218.392615 
L 314.184711 218.392615 
L 314.184711 219.721846 
L 310.597368 219.721846 
L 310.597368 221.051077 
L 307.010025 221.051077 
L 307.010025 222.380308 
L 305.216354 222.380308 
L 305.216354 223.709538 
L 301.629011 223.709538 
L 301.629011 225.038769 
L 298.041668 225.038769 
L 298.041668 226.368 
L 294.454324 226.368 
L 294.454324 227.697231 
L 290.866981 227.697231 
L 290.866981 229.026462 
L 289.07331 229.026462 
L 289.07331 230.355692 
L 285.485967 230.355692 
L 285.485967 231.684923 
L 280.104952 231.684923 
L 280.104952 233.014154 
L 276.517609 233.014154 
L 276.517609 231.684923 
L 251.406208 231.684923 
L 251.406208 230.355692 
L 247.818865 230.355692 
L 247.818865 229.026462 
L 246.025193 229.026462 
L 246.025193 226.368 
L 244.231522 226.368 
L 244.231522 225.038769 
L 242.43785 225.038769 
L 242.43785 225.038769 
" clip-path="url(#p0860a37816)" style="fill: none; stroke: #ff0000; stroke-width: 1.5; stroke-linecap: square"/>
   </g>
   <g id="patch_3">
    <path d="M 57.6 307.584 
L 57.6 41.472 
" style="fill: none; stroke: #000000; stroke-width: 0.8; stroke-linejoin: miter; stroke-linecap: square"/>
   </g>
   <g id="patch_4">
    <path d="M 414.72 307.584 
L 414.72 41.472 
" style="fill: none; stroke: #000000; stroke-width: 0.8; stroke-linejoin: miter; stroke-linecap: square"/>
   </g>
   <g id="patch_5">
    <path d="M 57.6 307.584 
L 414.72 307.584 
" style="fill: none; stroke: #000000; stroke-width: 0.8; stroke-linejoin: miter; stroke-linecap: square"/>
   </g>
   <g id="patch_6">
    <path d="M 57.6 41.472 
L 414.72 41.472 
" style="fill: none; stroke: #000000; stroke-width: 0.8; stroke-linejoin: miter; stroke-linecap: square"/>
   </g>
  </g>
 </g>
 <defs>
  <clipPath id="p0860a37816">
   <rect x="57.6" y="41.472" width="357.12" height="266.112"/>
  </clipPath>
 </defs>
</svg>
